<svg width="1485" height="2432" viewBox="0 0 1485 2432" fill="none" xmlns="http://www.w3.org/2000/svg">
<path d="M99.3412 1058.93C86.9469 1065.01 71.9258 1059.92 66.2624 1047.32C18.2756 940.63 -3.8519 823.981 1.84729 706.895C7.95206 581.477 45.7853 459.659 111.804 352.849C177.824 246.039 269.869 157.729 379.322 96.19C488.775 34.6507 612.055 1.89471 737.618 0.989032C863.182 0.0833522 986.921 31.0576 1097.25 91.0116C1207.58 150.966 1300.89 237.938 1368.44 343.785C1436 449.632 1475.58 570.891 1483.49 696.208C1490.88 813.2 1470.44 930.155 1424 1037.53C1418.52 1050.2 1403.57 1055.52 1391.09 1049.61L1100.93 912.329C1088.45 906.424 1083.2 891.545 1088.25 878.695C1108.09 828.224 1116.66 773.914 1113.23 719.589C1109.28 656.93 1089.48 596.301 1055.71 543.377C1021.93 490.454 975.275 446.968 920.11 416.991C864.945 387.014 803.076 371.527 740.294 371.979C677.512 372.432 615.872 388.81 561.146 419.58C506.419 450.349 460.397 494.504 427.387 547.909C394.378 601.315 375.461 662.223 372.409 724.933C369.762 779.302 379.116 833.482 399.682 883.662C404.918 896.438 399.887 911.391 387.493 917.475L99.3412 1058.93Z" fill="#FFC404"/>
<path d="M26.002 1690.01C12.1948 1690.01 0.957976 1678.81 1.42308 1665.01C4.41996 1576.1 23.386 1488.38 57.4834 1406.06C94.7724 1316.03 149.428 1234.24 218.329 1165.34C287.23 1096.44 369.027 1041.78 459.051 1004.49C549.075 967.202 645.561 948.009 743.002 948.01C840.443 948.01 936.93 967.202 1026.95 1004.49C1116.98 1041.78 1198.77 1096.44 1267.68 1165.34C1336.58 1234.24 1391.23 1316.04 1428.52 1406.06C1462.62 1488.38 1481.58 1576.1 1484.58 1665.01C1485.05 1678.81 1473.81 1690.01 1460 1690.01L1139 1690.01C1125.19 1690.01 1114.09 1678.8 1113.16 1665.03C1110.45 1624.86 1101.21 1585.34 1085.76 1548.03C1067.12 1503.02 1039.79 1462.12 1005.34 1427.67C970.888 1393.22 929.989 1365.89 884.978 1347.25C839.966 1328.61 791.722 1319.01 743.002 1319.01C694.282 1319.01 646.038 1328.61 601.026 1347.25C556.015 1365.89 515.116 1393.22 480.665 1427.67C446.215 1462.12 418.887 1503.02 400.243 1548.03C384.792 1585.34 375.555 1624.86 372.844 1665.03C371.914 1678.8 360.809 1690.01 347.002 1690.01L26.002 1690.01Z" fill="#E4E4E4"/>
<path d="M1114 1667.01C1114 1653.2 1125.19 1642.01 1139 1642.01H1460C1473.81 1642.01 1485 1653.2 1485 1667.01V2407.01C1485 2420.82 1473.81 2432.01 1460 2432.01H1139C1125.19 2432.01 1114 2420.82 1114 2407.01V1667.01Z" fill="#E4E4E4"/>
<path d="M1.00196 1667.01C1.00196 1653.2 12.1948 1642.01 26.002 1642.01H347.002C360.809 1642.01 372.002 1653.2 372.002 1667.01V2407.01C372.002 2420.82 360.809 2432.01 347.002 2432.01H26.002C12.1948 2432.01 1.00196 2420.82 1.00196 2407.01V1667.01Z" fill="#E4E4E4"/>
<path d="M922 1869.01C922 1967.87 841.859 2048.01 743 2048.01C644.141 2048.01 564 1967.87 564 1869.01C564 1770.15 644.141 1690.01 743 1690.01C841.859 1690.01 922 1770.15 922 1869.01Z" fill="#E4E4E4"/>
</svg>
